<svg width="612" height="792" viewBox="0 0 612 792" fill="none" xmlns="http://www.w3.org/2000/svg">
<g clip-path="url(#clip0)">
<rect width="612" height="792" fill="white"/>
<g opacity="0.8">
<mask id="mask0" style="mask-type:alpha" maskUnits="userSpaceOnUse" x="322" y="463" width="416" height="376">
<rect x="322" y="463" width="415.419" height="376" fill="#C4C4C4"/>
</mask>
<g mask="url(#mask0)">
<path d="M534.781 651.464C523.607 640.29 523.607 622.173 534.781 610.999L674.17 471.609C685.345 460.435 703.461 460.435 714.635 471.609V471.609C725.809 482.783 725.809 500.9 714.635 512.074L575.246 651.464C564.072 662.638 545.955 662.638 534.781 651.464V651.464Z" fill="#6A4AED"/>
<path d="M408.437 734.41C397.263 723.236 397.263 705.119 408.437 693.945L453.386 648.996C464.56 637.822 482.677 637.822 493.851 648.996V648.996C505.025 660.17 505.025 678.287 493.851 689.461L448.901 734.41C437.727 745.584 419.611 745.584 408.437 734.41V734.41Z" fill="#6A4AED"/>
<path d="M346.588 723.293C342.777 719.482 342.777 713.303 346.588 709.492L368.869 687.212C372.68 683.401 378.858 683.401 382.669 687.212V687.212C386.48 691.023 386.48 697.201 382.669 701.012L360.389 723.293C356.578 727.103 350.399 727.103 346.588 723.293V723.293Z" fill="#6A4AED"/>
<path d="M480.679 825.784C440.492 785.597 440.492 720.441 480.679 680.254L532.684 628.249C572.871 588.062 638.027 588.062 678.214 628.249V628.249C718.401 668.436 718.401 733.592 678.214 773.779L626.209 825.784C586.022 865.971 520.866 865.971 480.679 825.784V825.784Z" fill="url(#paint0_linear)"/>
<path d="M324.857 848.732C321.046 844.921 321.046 838.742 324.857 834.932L381.104 778.685C384.914 774.874 391.093 774.874 394.904 778.685V778.685C398.715 782.496 398.715 788.675 394.904 792.485L338.657 848.732C334.847 852.543 328.668 852.543 324.857 848.732V848.732Z" fill="#6A4AED"/>
<rect x="397.806" y="628.685" width="115.673" height="33.5661" rx="16.7831" transform="rotate(-45 397.806 628.685)" fill="#A48DFF"/>
<path d="M419.362 804.448C415.552 800.637 415.552 794.458 419.362 790.647L443.454 766.556C447.265 762.745 453.443 762.745 457.254 766.556V766.556C461.065 770.367 461.065 776.545 457.254 780.356L433.163 804.448C429.352 808.258 423.173 808.258 419.362 804.448V804.448Z" fill="#A48DFF"/>
<path d="M492.642 621.635C488.831 617.824 488.831 611.646 492.642 607.835L513.835 586.642C517.646 582.831 523.824 582.831 527.635 586.642V586.642C531.446 590.453 531.446 596.631 527.635 600.442L506.442 621.635C502.631 625.446 496.453 625.446 492.642 621.635V621.635Z" fill="#A48DFF"/>
<path d="M522.349 954.392C508.272 940.315 508.272 917.492 522.349 903.416L652.749 773.015C666.826 758.938 689.649 758.938 703.726 773.015V773.015C717.802 787.092 717.802 809.915 703.726 823.992L573.325 954.392C559.249 968.469 536.425 968.469 522.349 954.392V954.392Z" fill="#A48DFF"/>
</g>
</g>
<g opacity="0.8">
<mask id="mask1" style="mask-type:alpha" maskUnits="userSpaceOnUse" x="-186" y="-153" width="465" height="420">
<rect x="278.032" y="267" width="464.032" height="420" transform="rotate(-180 278.032 267)" fill="#C4C4C4"/>
</mask>
<g mask="url(#mask1)">
<path d="M40.3516 56.482C52.8332 68.9636 52.8332 89.2003 40.3516 101.682L-115.35 257.383C-127.831 269.865 -148.068 269.865 -160.55 257.383V257.383C-173.031 244.902 -173.031 224.665 -160.55 212.183L-4.84843 56.482C7.63321 44.0003 27.87 44.0003 40.3516 56.482V56.482Z" fill="#6A4AED"/>
<path d="M181.481 -36.1708C193.962 -23.6892 193.962 -3.45243 181.481 9.02921L131.271 59.2388C118.789 71.7204 98.5527 71.7204 86.0711 59.2388V59.2388C73.5895 46.7571 73.5895 26.5204 86.0711 14.0387L136.281 -36.1708C148.762 -48.6525 168.999 -48.6525 181.481 -36.1708V-36.1708Z" fill="#6A4AED"/>
<path d="M250.567 -23.7524C254.823 -19.4956 254.823 -12.594 250.567 -8.33724L225.679 16.5505C221.422 20.8073 214.521 20.8073 210.264 16.5505V16.5505C206.007 12.2937 206.007 5.39211 210.264 1.13532L235.151 -23.7524C239.408 -28.0092 246.31 -28.0092 250.567 -23.7524V-23.7524Z" fill="#6A4AED"/>
<path d="M100.784 -138.238C145.674 -93.348 145.674 -20.5673 100.784 24.3225L42.6935 82.4134C-2.19626 127.303 -74.977 127.303 -119.867 82.4134V82.4134C-164.757 37.5236 -164.757 -35.2572 -119.867 -80.147L-61.7759 -138.238C-16.8861 -183.128 55.8946 -183.128 100.784 -138.238V-138.238Z" fill="url(#paint1_linear)"/>
<rect x="200.877" y="69.5123" width="129.209" height="37.4941" rx="18.747" transform="rotate(135 200.877 69.5123)" fill="#A48DFF"/>
<path d="M87.4215 89.8012C91.6783 94.058 91.6783 100.96 87.4215 105.216L63.7486 128.889C59.4919 133.146 52.5902 133.146 48.3335 128.889V128.889C44.0767 124.632 44.0767 117.731 48.3335 113.474L72.0063 89.8012C76.2631 85.5444 83.1647 85.5444 87.4215 89.8012V89.8012Z" fill="#A48DFF"/>
</g>
</g>
<path d="M34 165V761H346" stroke="#A692F4" stroke-width="5"/>
<path d="M580 535L580 29L246 29" stroke="#A692F4" stroke-width="5"/>
</g>
<defs>
<linearGradient id="paint0_linear" x1="676.352" y1="625.495" x2="488.604" y2="821.581" gradientUnits="userSpaceOnUse">
<stop/>
<stop offset="0.489583" stop-color="#6A4AED"/>
<stop offset="1" stop-color="white" stop-opacity="0"/>
</linearGradient>
<linearGradient id="paint1_linear" x1="-117.786" y1="85.4895" x2="91.9318" y2="-133.543" gradientUnits="userSpaceOnUse">
<stop/>
<stop offset="0.489583" stop-color="#6A4AED"/>
<stop offset="1" stop-color="white" stop-opacity="0"/>
</linearGradient>
<clipPath id="clip0">
<rect width="612" height="792" fill="white"/>
</clipPath>
</defs>
</svg>
